<svg viewBox="0 0 360 65" fill="none" xmlns="http://www.w3.org/2000/svg">
  <g clip-path="url(#clip0_0_2334)">
    <mask id="mask0_0_2334" style="mask-type:luminance" maskUnits="userSpaceOnUse" x="0" y="0" width="360" height="65">
      <path d="M360 0H0V65H360V0Z" fill="white" />
    </mask>
    <g mask="url(#mask0_0_2334)">
      <path d="M360.007 0H0V65.0066H360.007V0Z" fill="black" />
      <path
        d="M32.8149 4.0592H56.0158L84.8775 25.6949H60.6998L56.8862 22.5179H30.5293L26.7157 25.6949H4.06616L32.8149 4.0592ZM35.6452 18.1602H51.7636L46.8603 13.922C45.6644 12.8607 43.917 11.1362 43.917 11.1362H43.6978C43.6978 11.1362 42.0634 12.8607 40.7545 13.922L35.6386 18.1602H35.6452Z"
        fill="#FF3B49" />
      <path d="M83.7878 4.0592H106.55V20.276H139.87V25.6949H83.7878V4.0592Z" fill="#FF3B49" />
      <path d="M140.528 4.0592H163.29V20.276H196.617V25.6949H140.528V4.0592Z" fill="#FF3B49" />
      <path
        d="M205.108 14.95C205.108 8.47656 220.356 3.66125 244.533 3.66125C268.711 3.66125 284.178 8.46993 284.178 14.95C284.178 21.4301 268.711 26.2056 244.533 26.2056C220.356 26.2056 205.108 21.4235 205.108 14.95ZM261.084 14.95C261.084 11.4082 255.529 8.71534 244.64 8.71534C233.75 8.71534 228.196 11.4082 228.196 14.95C228.196 18.4919 233.75 21.1516 244.64 21.1516C255.529 21.1516 261.084 18.4852 261.084 14.95Z"
        fill="#FF3B49" />
      <path
        d="M317.286 18.7373H307.918V25.6949H285.155V4.0592H321.751C331.663 4.0592 338.852 4.72247 343.968 5.99594C349.523 7.35563 352.679 9.26584 352.679 11.6536C352.679 14.3796 347.343 16.5551 339.171 17.7689L355.941 25.6949H330.78L317.272 18.7373H317.286ZM307.918 13.8888H320.987C326.541 13.8888 330.029 13.0398 330.029 11.5607C330.029 10.0817 326.654 9.29237 320.774 9.29237H307.924V13.8954L307.918 13.8888Z"
        fill="#FF3B49" />
      <path
        d="M4.06616 29.754H37.18V37.1693H16.4905V41.401H33.7915V48.2525H16.4905V53.1408H37.778V60.9474H4.06616V29.754Z"
        fill="#FF3B49" />
      <path
        d="M36.17 29.754H48.9532L54.78 44.4122C55.8497 47.0719 56.8595 50.4744 56.8595 50.4744H56.9791C56.9791 50.4744 58.0488 47.0719 59.0587 44.4122L64.7659 29.754H77.3697L63.6963 60.9474H49.7837L36.17 29.754Z"
        fill="#FF3B49" />
      <path
        d="M76.7186 29.754H109.839V37.1693H89.143V41.401H106.451V48.2525H89.143V53.1408H110.43V60.9474H76.7186V29.754Z"
        fill="#FF3B49" />
      <path
        d="M129.22 50.9122H124.104V60.9474H111.679V29.754H131.658C137.066 29.754 140.993 30.7158 143.79 32.5464C146.82 34.5096 148.547 37.2556 148.547 40.7045C148.547 44.6311 145.637 47.7749 141.172 49.5193L150.328 60.9474H136.595L129.22 50.9122ZM124.104 43.9346H131.239C134.269 43.9346 136.176 42.7142 136.176 40.5719C136.176 38.4295 134.336 37.302 131.12 37.302H124.104V43.9346Z"
        fill="#FF3B49" />
      <path
        d="M157.112 49.997L142.548 29.7542H156.042L160.56 36.6919C162.108 39.0465 163.41 41.7128 163.41 41.7128H163.53C163.53 41.7128 164.898 39.0531 166.446 36.6919L170.964 29.7542H184.166L169.536 49.997V60.9475H157.112V49.997Z"
        fill="#FF3B49" />
      <path d="M183.581 29.754H220.21V37.5209H208.018V60.9474H195.593V37.5209H183.581V29.754Z" fill="#FF3B49" />
      <path
        d="M220.741 29.754H233.166V41.1821H246.248V29.754H258.679V60.9474H246.248V48.73H233.166V60.9474H220.741V29.754Z"
        fill="#FF3B49" />
      <path d="M273.302 29.754H260.878V60.9474H273.302V29.754Z" fill="#FF3B49" />
      <path
        d="M275.501 29.754H287.926L301.838 47.2908H301.958V29.754H313.97V60.9474H301.127L287.633 43.278H287.514V60.9474H275.501V29.754Z"
        fill="#FF3B49" />
      <path
        d="M346.732 57.6312H346.612C343.935 60.4699 339.596 61.6903 334.421 61.6903C328.713 61.6903 323.837 60.2511 320.388 57.5449C316.462 54.4939 314.502 50.3021 314.502 45.4602C314.502 36.2541 322.468 29.1837 335.61 29.1837C346.725 29.1837 353.741 33.4153 355.11 40.3531H343.098C342.447 38.3434 339.889 36.6852 336.082 36.6852C330.135 36.6852 327.105 40.3531 327.105 45.4536C327.105 50.5541 330.554 54.3546 336.56 54.3546C341.078 54.3546 343.277 52.5638 344.054 50.4745H338.407V44.0143H355.947V60.9409H347.682L346.732 57.6245V57.6312Z"
        fill="#FF3B49" />
    </g>
  </g>
  <defs>
    <clipPath id="clip0_0_2334">
      <rect width="360" height="65" fill="white" />
    </clipPath>
  </defs>
</svg>