<svg viewBox="0 0 300 26" fill="none" xmlns="http://www.w3.org/2000/svg">
  <g clip-path="url(#clip0_0_2224)">
    <path
      d="M0 13.018C0 5.55045 8.85287 0 21.7997 0C26.4963 0 30.7149 0.695738 33.8425 1.95322C38.3001 3.73122 40.8874 6.52448 41.4329 9.69911H28.8446C28.5432 7.74589 25.7118 5.99881 21.6178 5.99881C15.6536 5.99881 12.765 8.93122 12.765 13.0129C12.765 17.0945 16.1367 20.027 21.7373 20.027C26.1326 20.027 28.7822 18.352 29.2082 16.1205H41.916C41.5524 18.8777 39.3859 21.3205 36.3155 23.0315C32.6424 25.093 28.0653 26 21.7997 26C8.67103 26 0 20.4856 0 13.018Z"
      fill="#FF3B49" />
    <path
      d="M52.5457 0.453491H65.373L81.3331 25.4073H67.9655L65.8562 21.7431H51.2832L49.1739 25.4073H36.6479L52.5457 0.453491ZM54.1095 16.7183H63.0247L60.3127 11.8327C59.6477 10.6113 58.6866 8.62197 58.6866 8.62197H58.5671C58.5671 8.62197 57.6631 10.6113 56.941 11.8327L54.1095 16.7183Z"
      fill="#FF3B49" />
    <path d="M72.3452 0.453491H109.445V6.6636H97.101V25.4022H84.5127V6.6636H72.3452V0.453491Z" fill="#FF3B49" />
    <path
      d="M108.214 0.453491H141.76V6.3853H120.802V9.77123H138.326V15.2495H120.802V19.156H142.363V25.4022H108.214V0.453491Z"
      fill="#FF3B49" />
    <path
      d="M173.161 22.7532H173.041C170.329 25.0208 165.934 26 160.697 26C154.915 26 149.979 24.8507 146.483 22.6862C142.508 20.2434 140.519 16.8936 140.519 13.018C140.519 5.65352 148.587 0 161.897 0C173.161 0 180.268 3.38593 181.65 8.93637H169.483C168.818 7.32844 166.23 6.00396 162.375 6.00396C156.354 6.00396 153.284 8.93637 153.284 13.018C153.284 17.0997 156.775 20.1352 162.859 20.1352C167.436 20.1352 169.664 18.7025 170.449 17.0276H164.729V11.8636H182.497V25.4022H174.127L173.166 22.7481L173.161 22.7532Z"
      fill="#FF3B49" />
    <path
      d="M181.562 13.018C181.562 5.55045 189.994 0 203.361 0C216.729 0 225.286 5.55045 225.286 13.018C225.286 20.4856 216.734 26 203.361 26C189.989 26 181.562 20.4856 181.562 13.018ZM212.516 13.018C212.516 8.93637 209.445 5.82874 203.424 5.82874C197.402 5.82874 194.332 8.93637 194.332 13.018C194.332 17.0997 197.402 20.1713 203.424 20.1713C209.445 20.1713 212.516 17.0997 212.516 13.018Z"
      fill="#FF3B49" />
    <path
      d="M243.069 17.378H237.889V25.4073H225.301V0.453491H245.537C251.018 0.453491 254.992 1.22138 257.824 2.68501C260.894 4.25686 262.64 6.4523 262.64 9.20949C262.64 12.348 259.689 14.863 255.174 16.2596L264.448 25.4021H250.535L243.069 17.3728V17.378ZM237.889 11.7966H245.116C248.187 11.7966 250.114 10.8174 250.114 9.11157C250.114 7.40572 248.249 6.49353 244.997 6.49353H237.889V11.7966Z"
      fill="#FF3B49" />
    <path
      d="M272.595 16.6462L257.84 0.453491H271.509L276.086 6.00394C277.65 7.89016 278.974 10.0186 278.974 10.0186H279.094C279.094 10.0186 280.481 7.89016 282.045 6.00394L286.622 0.453491H299.99L285.173 16.6462V25.4073H272.584V16.6462H272.595Z"
      fill="#FF3B49" />
  </g>
  <defs>
    <clipPath id="clip0_0_2224">
      <rect width="300" height="26" fill="white" />
    </clipPath>
  </defs>
</svg>