<svg viewBox="0 0 217 60" fill="none" xmlns="http://www.w3.org/2000/svg">
  <g clip-path="url(#clip0_0_2181)">
    <path
      d="M30.2834 8.63491C30.2834 3.68163 36.1301 0 44.6806 0C47.7823 0 50.5684 0.461486 52.634 1.29558C55.5779 2.47493 57.2866 4.32771 57.6469 6.43345H49.3332C49.1342 5.13788 47.2642 3.97903 44.5605 3.97903C40.6215 3.97903 38.7138 5.92411 38.7138 8.63149C38.7138 11.3389 40.9406 13.284 44.6394 13.284C47.5422 13.284 49.292 12.173 49.5734 10.6928H57.966C57.7258 12.5216 56.295 14.142 54.2672 15.2769C51.8414 16.6443 48.8185 17.2459 44.6806 17.2459C36.01 17.2459 30.2834 13.5882 30.2834 8.63491Z"
      fill="black" />
    <path
      d="M57.6812 0.300842H65.9948V6.36511H74.7443V0.300842H83.058V16.8528H74.7443V10.3715H65.9948V16.8528H57.6812V0.300842Z"
      fill="black" />
    <path
      d="M83.051 8.63491C83.051 3.68163 88.6198 0 97.4482 0C106.277 0 111.928 3.68163 111.928 8.63491C111.928 13.5882 106.28 17.2459 97.4482 17.2459C88.6164 17.2459 83.051 13.5882 83.051 8.63491ZM103.494 8.63491C103.494 5.92753 101.466 3.86623 97.4893 3.86623C93.5126 3.86623 91.4848 5.92753 91.4848 8.63491C91.4848 11.3423 93.5126 13.3797 97.4893 13.3797C101.466 13.3797 103.494 11.3423 103.494 8.63491Z"
      fill="black" />
    <path
      d="M123.676 11.5269H120.255V16.8528H111.941V0.300842H125.306C128.926 0.300842 131.55 0.810186 133.42 1.78102C135.448 2.82363 136.601 4.27988 136.601 6.10873C136.601 8.19054 134.652 9.85873 131.671 10.7851L137.795 16.8494H128.607L123.676 11.5235V11.5269ZM120.255 7.82477H125.028C127.056 7.82477 128.329 7.17527 128.329 6.04378C128.329 4.91228 127.097 4.30722 124.949 4.30722H120.255V7.82477Z"
      fill="black" />
    <path
      d="M137.105 0.300842H159.26V4.23544H145.419V6.48133H156.992V10.1151H145.419V12.7063H159.658V16.8494H137.105V0.300842Z"
      fill="black" />
    <path
      d="M158.437 8.63491C158.437 3.68163 164.006 0 172.834 0C181.663 0 187.314 3.68163 187.314 8.63491C187.314 13.5882 181.666 17.2459 172.834 17.2459C164.002 17.2459 158.437 13.5882 158.437 8.63491ZM178.883 8.63491C178.883 5.92753 176.855 3.86623 172.879 3.86623C168.902 3.86623 166.874 5.92753 166.874 8.63491C166.874 11.3423 168.902 13.3797 172.879 13.3797C176.855 13.3797 178.883 11.3423 178.883 8.63491Z"
      fill="black" />
    <path
      d="M52.3424 36.4711H52.2635C50.4724 37.9752 47.5696 38.6247 44.111 38.6247C40.2922 38.6247 37.0326 37.8624 34.7234 36.4266C32.0986 34.8063 30.7844 32.5843 30.7844 30.0137C30.7844 25.1288 36.113 21.3788 44.9036 21.3788C52.3424 21.3788 57.0362 23.6247 57.9489 27.3063H49.9131C49.4739 26.2398 47.7652 25.3612 45.2193 25.3612C41.2426 25.3612 39.2148 27.3063 39.2148 30.0137C39.2148 32.7211 41.5205 34.7345 45.5384 34.7345C48.5612 34.7345 50.0332 33.7842 50.5513 32.6732H46.7736V29.248H58.5082V38.2281H52.9806L52.3458 36.4677L52.3424 36.4711Z"
      fill="black" />
    <path
      d="M71.1039 32.9056H67.6831V38.2315H59.3694V21.6796H72.7337C76.3536 21.6796 78.9784 22.1889 80.8484 23.1597C82.8762 24.2024 84.0291 25.6586 84.0291 27.4875C84.0291 29.5693 82.0802 31.2374 79.0985 32.1638L85.2231 38.2281H76.0345L71.1039 32.9022V32.9056ZM67.6831 29.2001H72.4558C74.4836 29.2001 75.7566 28.5506 75.7566 27.4191C75.7566 26.2876 74.5248 25.6825 72.3769 25.6825H67.6831V29.2001Z"
      fill="black" />
    <path
      d="M93.8799 21.6761H102.351L112.892 38.2281H104.064L102.671 35.7976H93.0462L91.6531 38.2281H83.3806L93.8799 21.6761ZM94.9127 32.4647H100.801L99.0095 29.224C98.5703 28.4138 97.9356 27.0943 97.9356 27.0943H97.8567C97.8567 27.0943 97.2596 28.4138 96.7827 29.224L94.9127 32.4647Z"
      fill="black" />
    <path
      d="M111.763 21.6761H124.849C128.469 21.6761 131.094 22.2299 132.964 23.2042C134.992 24.2468 136.145 25.7509 136.145 27.5797C136.145 30.776 132.089 33.1825 126.359 33.1825H120.073V38.2281H111.76V21.6761H111.763ZM120.077 29.4325H124.571C126.599 29.4325 127.872 28.6463 127.872 27.5114C127.872 26.3765 126.64 25.6825 124.493 25.6825H120.077V29.4325Z"
      fill="black" />
    <path
      d="M135.359 21.6761H143.673V27.7404H152.422V21.6761H160.736V38.2281H152.422V31.7468H143.673V38.2281H135.359V21.6761Z"
      fill="black" />
    <path
      d="M169.389 32.4168L159.645 21.6761H168.672L171.695 25.3578C172.728 26.6089 173.603 28.0207 173.603 28.0207H173.682C173.682 28.0207 174.598 26.6089 175.631 25.3578L178.653 21.6761H187.482L177.696 32.4168V38.2281H169.382V32.4168H169.389Z"
      fill="black" />
    <path
      d="M0 43.0549H8.31369L10.3827 48.7261C11.0586 50.531 11.7757 53.3341 11.7757 53.3341H11.8546C11.8546 53.3341 12.6095 50.8558 13.3266 48.9585L15.5157 43.0549H23.0333L25.2224 48.9107C25.9395 50.8318 26.6532 53.3307 26.6532 53.3307H26.7321C26.7321 53.3307 27.487 50.531 28.1629 48.6782L30.2319 43.0515H38.7446L31.2681 59.6035H22.8755L20.3296 52.5889C19.8115 51.1532 19.3346 49.3722 19.3346 49.3722H19.2556C19.2556 49.3722 18.7787 51.1532 18.2606 52.5889L15.7936 59.6035H7.28091L0 43.0549Z"
      fill="black" />
    <path
      d="M35.7114 51.3856C35.7114 46.4324 41.2802 42.7507 50.1086 42.7507C58.9369 42.7507 64.588 46.4324 64.588 51.3856C64.588 56.3389 58.9403 59.9966 50.1086 59.9966C41.2768 59.9966 35.7114 56.3389 35.7114 51.3856ZM56.1543 51.3856C56.1543 48.6783 54.1264 46.617 50.1497 46.617C46.173 46.617 44.1452 48.6783 44.1452 51.3856C44.1452 54.093 46.173 56.1304 50.1497 56.1304C54.1264 56.1304 56.1543 54.093 56.1543 51.3856Z"
      fill="black" />
    <path
      d="M76.3364 54.281H72.9155V59.6069H64.6018V43.0549H77.9662C81.586 43.0549 84.2109 43.5643 86.0808 44.5351C88.1087 45.5777 89.2615 47.034 89.2615 48.8628C89.2615 50.9446 87.3126 52.6128 84.3309 53.5392L90.4556 59.6035H81.2669L76.3364 54.2776V54.281ZM72.9155 50.5754H77.6882C79.716 50.5754 80.989 49.9259 80.989 48.7945C80.989 47.663 79.7572 47.0579 77.6093 47.0579H72.9155V50.5754Z"
      fill="black" />
    <path
      d="M89.7659 43.0549H98.0796V48.4731L106.671 43.0549H116.217L105.597 49.7208L116.814 59.6069H107.148L99.9084 53.0572L98.0796 54.2605V59.6069H89.7659V43.0549Z"
      fill="black" />
    <path
      d="M113.009 54.3255H121.521C121.799 55.645 123.549 56.2706 126.294 56.2706C127.924 56.2706 129.914 55.9014 129.914 54.9032C129.914 53.905 128.006 53.6521 124.503 53.1427C119.73 52.4488 113.962 51.4985 113.962 47.9809C113.962 44.183 119.291 42.7507 125.697 42.7507C131.585 42.7507 136.992 44.1865 137.112 47.7963H128.878C128.637 46.8939 127.526 46.3161 125.258 46.3161C123.429 46.3161 122.156 46.8016 122.156 47.475C122.156 48.4458 124.582 48.586 128.836 49.1876C133.609 49.8576 138.382 50.9481 138.382 54.4656C138.382 57.9832 132.854 59.9966 126.133 59.9966C118.735 59.9966 113.125 58.1439 113.009 54.3255Z"
      fill="black" />
    <path
      d="M138.358 43.0549H146.672V49.1192H155.421V43.0549H163.735V59.6069H155.421V53.1256H146.672V59.6069H138.358V43.0549Z"
      fill="black" />
    <path
      d="M163.728 51.3856C163.728 46.4324 169.297 42.7507 178.125 42.7507C186.953 42.7507 192.604 46.4324 192.604 51.3856C192.604 56.3389 186.957 59.9966 178.125 59.9966C169.293 59.9966 163.728 56.3389 163.728 51.3856ZM184.171 51.3856C184.171 48.6783 182.143 46.617 178.166 46.617C174.189 46.617 172.162 48.6783 172.162 51.3856C172.162 54.093 174.189 56.1304 178.166 56.1304C182.143 56.1304 184.171 54.093 184.171 51.3856Z"
      fill="black" />
    <path
      d="M192.618 43.0549H205.705C209.324 43.0549 211.949 43.6087 213.819 44.583C215.847 45.6256 217 47.1297 217 48.9585C217 52.1548 212.944 54.5613 207.214 54.5613H200.928V59.6069H192.615V43.0549H192.618ZM200.932 50.8079H205.427C207.455 50.8079 208.727 50.0217 208.727 48.8867C208.727 47.7518 207.496 47.0579 205.348 47.0579H200.932V50.8079Z"
      fill="black" />
  </g>
  <defs>
    <clipPath id="clip0_0_2181">
      <rect width="217" height="60" fill="white" />
    </clipPath>
  </defs>
</svg>