<svg viewBox="0 0 171 38" fill="none" xmlns="http://www.w3.org/2000/svg">
  <g clip-path="url(#clip0_0_2165)">
    <path d="M0 0H7.66049V16.5837H0V0Z" fill="currentColor" />
    <path
      d="M8.77344 0H16.4339L25.0113 9.32276H25.084V0H32.4884V16.5837H24.5718L16.2537 7.189H16.181V16.5837H8.7766V0H8.77344Z"
      fill="currentColor" />
    <path d="M33.6706 0H53.8636V4.08256H41.328V6.79513H51.7011V10.5523H41.328V16.5837H33.6675V0H33.6706Z"
      fill="currentColor" />
    <path
      d="M64.1546 11.2476H61.0025V16.5837H53.342V0H65.6564C68.9918 0 71.4104 0.51032 73.1335 1.48301C75.002 2.52762 76.0643 3.98666 76.0643 5.81902C76.0643 7.90482 74.2685 9.57621 71.5211 10.5044L77.1645 16.5803H68.6978L64.1546 11.2442V11.2476ZM61.0025 7.53835H65.4003C67.2688 7.53835 68.4417 6.88761 68.4417 5.75394C68.4417 4.62028 67.3067 4.01406 65.3276 4.01406H61.0025V7.53835Z"
      fill="currentColor" />
    <path
      d="M85.1412 0H92.9471L102.659 16.5837H94.5248L93.2412 14.1485H84.3729L83.0894 16.5837H75.4668L85.1412 0ZM86.096 10.8092H91.5213L89.8709 7.56233C89.4662 6.75061 88.8814 5.42857 88.8814 5.42857H88.8086C88.8086 5.42857 88.2585 6.75061 87.8191 7.56233L86.096 10.8092Z"
      fill="currentColor" />
    <path
      d="M112.432 11.2476H109.28V16.5837H101.619V0H113.934C117.269 0 119.688 0.51032 121.411 1.48301C123.279 2.52762 124.342 3.98666 124.342 5.81902C124.342 7.90482 122.546 9.57621 119.798 10.5044L125.442 16.5803H116.975L112.432 11.2442V11.2476ZM109.28 7.53835H113.678C115.546 7.53835 116.719 6.88761 116.719 5.75394C116.719 4.62028 115.584 4.01406 113.605 4.01406H109.28V7.53835Z"
      fill="currentColor" />
    <path d="M124.806 0H145.22V3.94214H132.467V6.19234H143.131V9.83308H132.467V12.4292H145.587V16.5803H124.806V0Z"
      fill="currentColor" />
    <path
      d="M146.115 0H158.208C165.758 0 171 3.06192 171 8.32609C171 13.5903 166.014 16.5837 157.879 16.5837H146.115V0ZM157.257 12.5696C160.775 12.5696 163.232 11.1311 163.232 8.32609C163.232 5.52105 160.924 4.01064 157.257 4.01064H153.776V12.5696H157.257Z"
      fill="currentColor" />
    <path
      d="M23.1743 21.4163H36.7343C39.3015 21.4163 41.2048 21.8102 42.599 22.4815C44.1735 23.2453 45.0903 24.3823 45.0903 25.7523C45.0903 27.3278 44.0281 28.3279 41.8276 28.9307V28.9992C44.6857 29.578 46.336 31.109 46.336 32.9893C46.336 34.8696 45.201 36.1197 43.3293 36.9554C41.7549 37.6507 39.6999 38 36.9904 38H23.1743V21.4163ZM35.4507 27.8655C36.9177 27.8655 37.9072 27.4237 37.9072 26.5435C37.9072 25.6633 36.8797 25.1735 35.4159 25.1735H30.6894V27.8655H35.4539H35.4507ZM36.1462 34.1983C37.7966 34.1983 38.9316 33.5715 38.9316 32.5749C38.9316 31.5097 37.6859 30.9754 36.1083 30.9754H30.6831V34.1983H36.1431H36.1462Z"
      fill="currentColor" />
    <path
      d="M53.2977 21.4163H61.1036L70.816 38H62.6813L61.3977 35.5649H52.5294L51.2458 38H43.6233L53.2977 21.4163ZM54.2493 32.2255H59.6746L58.0243 28.9786C57.6196 28.1669 57.0347 26.8449 57.0347 26.8449H56.962C56.962 26.8449 56.4119 28.1669 55.9724 28.9786L54.2493 32.2255Z"
      fill="currentColor" />
    <path d="M65.3467 21.4163H87.9235V25.5434H80.4116V37.9966H72.7511V25.5434H65.3467V21.4163Z" fill="currentColor" />
    <path d="M86.7156 21.4163H109.292V25.5434H101.78V37.9966H94.12V25.5434H86.7156V21.4163Z" fill="currentColor" />
    <path d="M108.546 21.4163H116.207V33.8489H127.421V38H108.546V21.4163Z" fill="currentColor" />
    <path
      d="M126.605 21.4163H147.019V25.3585H134.266V27.6087H144.93V31.2494H134.266V33.8455H147.386V37.9966H126.605V21.4129V21.4163Z"
      fill="currentColor" />
  </g>
  <defs>
    <clipPath id="clip0_0_2165">
      <rect width="171" height="38" fill="white" />
    </clipPath>
  </defs>
</svg>