<svg viewBox="0 0 168 38" fill="none" xmlns="http://www.w3.org/2000/svg">
  <g clip-path="url(#clip0_0_2148)">
    <path d="M0 0H7.5261V16.4136H0V0Z" fill="currentColor" />
    <path
      d="M8.61938 0H16.1455L24.5724 9.22712H24.6438V0H31.9183V16.4136H24.1406L15.9684 7.11525H15.897V16.4136H8.62249V0H8.61938Z"
      fill="currentColor" />
    <path d="M33.08 0H52.9187V4.04068H40.603V6.72542H50.7941V10.4441H40.603V16.4136H33.0769V0H33.08Z"
      fill="currentColor" />
    <path
      d="M63.0291 11.1322H59.9323V16.4136H52.4062V0H64.5045C67.7815 0 70.1577 0.505085 71.8505 1.4678C73.6862 2.50169 74.7298 3.94576 74.7298 5.75932C74.7298 7.82373 72.9656 9.47797 70.2664 10.3966L75.8108 16.4102H67.4926L63.0291 11.1288V11.1322ZM59.9323 7.46102H64.2529C66.0887 7.46102 67.241 6.81695 67.241 5.69492C67.241 4.57288 66.1259 3.97288 64.1815 3.97288H59.9323V7.46102Z"
      fill="currentColor" />
    <path
      d="M83.6475 0H91.3165L100.858 16.4136H92.8664L91.6054 14.0034H82.8927L81.6316 16.4136H74.1428L83.6475 0ZM84.5856 10.6983H89.9156L88.2942 7.48475C87.8967 6.68136 87.322 5.37288 87.322 5.37288H87.2506C87.2506 5.37288 86.7101 6.68136 86.2784 7.48475L84.5856 10.6983Z"
      fill="currentColor" />
    <path
      d="M110.459 11.1322H107.363V16.4136H99.8364V0H111.935C115.212 0 117.588 0.505085 119.281 1.4678C121.116 2.50169 122.16 3.94576 122.16 5.75932C122.16 7.82373 120.396 9.47797 117.697 10.3966L123.241 16.4102H114.923L110.459 11.1288V11.1322ZM107.363 7.46102H111.683C113.519 7.46102 114.671 6.81695 114.671 5.69492C114.671 4.57288 113.556 3.97288 111.612 3.97288H107.363V7.46102Z"
      fill="currentColor" />
    <path d="M122.617 0H142.673V3.9017H130.143V6.12881H140.62V9.7322H130.143V12.3017H143.033V16.4102H122.617V0Z"
      fill="currentColor" />
    <path
      d="M143.552 0H155.433C162.85 0 168 3.03051 168 8.24068C168 13.4508 163.102 16.4136 155.11 16.4136H143.552V0ZM154.498 12.4407C157.955 12.4407 160.368 11.0169 160.368 8.24068C160.368 5.46441 158.101 3.96949 154.498 3.96949H151.078V12.4407H154.498Z"
      fill="currentColor" />
    <path d="M18.5496 21.1966H26.0757V37.6102H18.5496V21.1966Z" fill="currentColor" />
    <path
      d="M37.7921 32.3322H34.6953V37.6136H27.1692V21.2H39.2675C42.5444 21.2 44.9206 21.7051 46.6134 22.6678C48.4491 23.7017 49.4928 25.1458 49.4928 26.9593C49.4928 29.0237 47.7285 30.678 45.0293 31.5966L50.5737 37.6102H42.2555L37.7921 32.3288V32.3322ZM34.6953 28.6576H39.0159C40.8516 28.6576 42.004 28.0136 42.004 26.8915C42.004 25.7695 40.8889 25.1695 38.9444 25.1695H34.6953V28.6576Z"
      fill="currentColor" />
    <path d="M49.9492 21.1966H57.4753V33.5017H68.4927V37.6102H49.9492V21.1966Z" fill="currentColor" />
    <path d="M72.2356 21.1966H79.7617V37.6102H72.2356V21.1966Z" fill="currentColor" />
    <path
      d="M80.855 21.1966H88.3811L96.808 30.4237H96.8794V21.1966H104.154V37.6102H96.3762L88.204 28.3118H88.1326V37.6102H80.8581V21.1966H80.855Z"
      fill="currentColor" />
    <path d="M105.316 21.1966H125.154V25.2373H112.839V27.922H123.03V31.6407H112.839V37.6102H105.312V21.1966H105.316Z"
      fill="currentColor" />
    <path
      d="M123.309 29.461C123.309 24.5492 128.351 20.8983 136.343 20.8983C144.335 20.8983 149.45 24.5492 149.45 29.461C149.45 34.3729 144.338 38 136.343 38C128.347 38 123.309 34.3729 123.309 29.461ZM141.816 29.461C141.816 26.7763 139.98 24.7322 136.38 24.7322C132.78 24.7322 130.944 26.7763 130.944 29.461C130.944 32.1458 132.78 34.1661 136.38 34.1661C139.98 34.1661 141.816 32.1458 141.816 29.461Z"
      fill="currentColor" />
  </g>
  <defs>
    <clipPath id="clip0_0_2148">
      <rect width="168" height="38" fill="white" />
    </clipPath>
  </defs>
</svg>