<svg viewBox="0 0 100 94" fill="none" xmlns="http://www.w3.org/2000/svg">
  <path
    d="M56.3734 6.00734C56.3381 5.80355 56.3381 5.78583 56.347 5.61748C56.2235 2.64925 58.5067 0.132896 61.4598 0.00885018C64.4129 -0.124056 66.9076 2.17079 67.0398 5.14788C67.1632 8.11612 64.8801 10.6236 61.9182 10.7565C61.7331 10.7654 61.5568 10.7565 61.3716 10.7565C61.2482 10.7831 61.1777 10.8008 61.0719 10.8894C60.7546 11.359 61.83 11.297 61.0455 13.3526C61.0455 13.3526 61.0455 13.583 60.9485 13.8134C60.8692 14.6108 60.5077 16.9588 60.4284 18.217C60.5783 18.403 60.6135 18.4916 60.5871 18.9347C60.4989 19.5283 60.3314 20.9814 60.0846 21.9206C59.8819 22.7269 59.5469 22.8687 59.2824 23.0548C58.8681 24.7117 58.7359 26.0939 57.7309 28.0963C57.6163 29.6292 57.4929 30.0368 57.1491 30.781C57.0522 33.0404 57.202 33.3771 55.5888 36.9213C55.1569 38.587 55.5007 39.7478 55.8621 41.5021C56.2412 43.3008 57.396 44.0805 57.5282 45.9146C57.8191 50.2385 57.6428 53.1624 56.6379 56.5205L57.396 58.4521C58.3833 58.9394 60.8163 60.2596 59.397 62.2177C61.3011 63.281 64.1837 64.4417 66.5462 66.577C67.4894 67.4099 68.4855 68.3225 69.3759 69.3858C71.1213 69.7048 70.9185 69.8377 72.1967 70.6706C75.9432 73.116 81.9288 77.9272 85.3843 81.3208C85.9926 81.6929 86.2306 81.9587 86.7154 82.2334C86.786 82.384 86.8124 82.4194 86.7859 82.4549C86.6096 82.889 86.6185 82.889 86.451 83.2257C86.6361 83.4384 86.9887 83.651 87.2003 83.846C87.3942 83.908 87.3942 83.8105 87.738 83.7396C88.1699 84.1649 88.7165 84.5194 88.9104 84.5016C89.5187 84.3687 89.4129 84.4928 89.933 83.9257C90.1181 83.7396 90.4178 83.9434 90.4178 83.9434C90.6118 83.7219 91.0349 83.2878 91.5903 82.9777C92.031 82.7296 92.8685 82.7207 92.8685 82.7207C93.1417 82.7207 93.0888 83.0131 93.0624 83.1106C92.745 83.2612 92.0663 83.4295 91.6872 83.6953C90.8498 84.5194 90.171 85.6535 90.171 85.6535C91.8283 85.4674 92.8244 85.9104 94.2084 85.7864C94.9489 85.7598 95.5042 85.8218 96.2976 85.2725C96.2976 85.2725 97.0733 84.7497 97.7521 84.4839C98.4132 84.2092 99.0391 84.3865 99.6033 84.8206C100 85.2991 100.256 85.3079 99.6033 85.937C99.3653 86.1851 99.0391 86.4598 98.616 86.8585C97.8755 87.5585 96.8706 88.4977 95.8392 89.2685C94.7902 90.0482 93.6001 90.7394 92.8773 91.0495C91.0085 92.3254 91.4492 91.9887 89.9771 93.2646C89.7919 93.4241 89.2983 93.7076 89.0515 93.8582C88.4785 94.2215 88.3022 93.9025 87.9496 93.2026C87.9496 93.2026 87.7909 92.9456 87.5264 92.3874C87.2267 91.7849 87.024 91.0938 87.1209 91.1026C86.7771 91.0495 85.2874 89.1977 85.2874 88.8078C84.9612 88.7281 83.6125 87.337 83.5772 87.08L82.3695 86.0522C80.9591 86.318 80.6594 85.4231 77.0187 82.6853C76.5956 82.6587 75.9432 82.4194 75.0264 81.6929C73.378 80.3018 69.4464 77.1475 68.7764 76.7842C68.0536 76.3944 67.1897 76.0134 66.6696 75.5526C65.8674 75.3843 65.4355 75.2868 65.03 75.1628C64.6245 75.0387 64.2542 74.8792 63.2228 74.7109C61.5391 74.4539 59.8025 73.7097 58.1541 72.8236C57.3695 72.4249 56.6907 72.2123 56.012 71.9022C54.5046 71.211 53.2087 70.5997 52.2038 70.3339C51.8159 70.2807 49.9912 69.687 49.0391 69.0845C48.713 68.8985 48.519 68.7301 48.2986 68.677C47.7962 68.5441 47.4612 68.739 47.232 68.8099C45.9802 69.4212 44.8078 69.9529 43.7147 70.5022C42.701 71.0161 41.7754 71.5389 40.7881 72.0794C39.8977 72.5667 38.8663 73.0186 37.8173 73.497C37.8173 73.497 34.8113 74.9147 33.1717 75.4552C31.7348 76.5804 28.8082 78.4943 27.0275 79.4424C26.146 79.8322 24.427 80.86 23.6424 81.0815C23.1929 81.4271 21.5709 82.5258 20.3103 83.4207C19.3406 84.1206 18.6001 84.7054 18.6001 84.7054C18.0271 85.1927 18.0624 85.432 17.0134 84.9535C16.7137 85.1927 16.4845 85.3345 16.2905 85.4674C15.5148 86.0079 15.4531 85.8661 15.171 85.8484C14.6245 86.3003 14.5716 86.0611 14.0867 86.575C13.7694 87.0446 14.0867 86.9382 13.4344 87.1509C13.2934 87.1952 13.2228 87.3635 13.1171 87.4521C12.5881 87.8686 12.5529 89.0825 11.3099 89.1356C10.5783 89.6318 10.7458 90.2609 10.1992 90.2166C10.2168 90.7571 9.19427 91.5102 9.00916 91.5014C7.4136 92.0153 7.33426 90.8368 5.41254 91.6608C5.16571 91.7672 4.79547 92.0684 4.31945 92.1482C3.482 92.2811 2.46825 92.0861 1.86882 91.59C0.916772 90.8191 0.0616945 89.3394 0.0616945 89.3394C-0.229208 88.604 -0.035273 88.1433 0.943218 87.4787C1.34872 87.2306 1.43687 87.0446 2.10683 87.0091C2.45062 86.8939 2.35365 87.0889 2.95309 86.8851C3.3057 86.7699 3.29688 86.8585 4.0021 86.8231C4.16078 86.7167 4.38997 86.6813 4.68969 86.5927C5.24505 86.4332 5.7916 86.2383 5.7916 86.2383C5.7916 86.2383 5.93264 86.0965 6.47037 86.1674C6.91995 85.9902 7.38715 85.7244 7.62516 85.6535C7.5899 84.9358 7.66042 84.9712 8.00422 84.6966C8.42735 84.351 8.49787 84.413 8.78877 84.6345C8.921 84.5637 8.98271 84.5371 8.97389 84.4308C8.93863 84.0586 8.62128 83.8726 8.73588 83.0574C8.60365 82.7296 8.40972 82.3131 8.46261 82.0739C8.53313 81.8081 8.60365 81.684 8.76233 81.6043C8.93863 81.5157 8.99152 81.6397 9.07968 81.7461C9.23835 81.941 9.35295 82.4992 9.35295 82.4992C9.38821 83.1371 9.57333 83.97 10.208 83.5181C10.5783 83.146 10.6752 82.1536 11.4245 82.384L11.9534 82.8625C12.4118 82.4549 12.4383 82.446 12.7116 82.2777C12.7116 82.2777 12.2972 81.8347 12.6851 81.5157C12.9496 81.2942 13.2581 81.1347 13.8223 80.541C15.3649 78.9107 16.1583 78.193 17.8156 76.8906C21.1213 74.2945 24.8678 72.5135 27.2302 71.6452C28.0148 70.6794 28.7817 70.0592 30.4742 69.9351C32.5811 66.5682 36.5215 63.6088 37.4207 63.1481C38.1788 61.8456 38.4873 61.9962 39.4393 61.757C40.1974 61.1722 40.3737 61.1722 40.7175 60.5608C41.079 59.2672 40.0917 55.7762 42.842 55.6699C43.4415 54.8547 43.3004 55.0497 43.9616 54.2877C43.5472 53.1801 43.3886 52.2675 43.3004 51.4789C43.2828 51.3903 42.2249 50.6106 42.5599 49.6182C42.1192 49.0689 41.2994 47.7753 41.0525 47.1816C40.9291 47.1816 40.8233 47.1285 40.6911 47.1107C40.5589 47.0842 40.3826 47.0842 40.1886 47.0664C39.7302 48.1651 39.263 48.236 38.5049 48.4575C37.068 51.3283 36.5568 52.5422 32.6604 54.8547C31.0913 56.5294 30.5536 58.4255 30.5624 58.3989C30.2803 58.9571 30.3596 59.7545 30.4919 60.1798C30.2715 60.8001 30.3244 60.8709 30.3244 60.8709C30.4037 61.1102 30.6153 61.4292 30.8797 61.5089C31.3381 61.6418 31.8053 61.6418 31.7613 62.1557C31.6819 62.7937 30.8445 62.6696 30.4478 62.5899C28.9139 62.3063 29.4252 61.3051 28.4379 61.6152C27.671 62.0937 27.3537 63.5468 26.1283 63.3253C25.9697 63.2101 26.0226 62.8911 26.146 62.6608C26.3223 62.3063 26.6396 62.0139 26.4545 61.881C25.6523 62.1114 24.0391 62.5987 24.0391 62.5987C23.281 62.7848 22.47 62.3861 23.2193 61.9076C23.5631 61.7836 24.0656 61.6329 24.6826 61.2431C24.6826 61.2431 25.0088 60.8266 24.4006 61.0304C23.7394 61.2431 22.7697 61.3671 22.0733 61.2785C22.0733 61.2785 20.6453 61.0482 20.4601 60.933C20.275 60.8178 20.1163 60.3659 20.5659 60.3836C21.1301 60.4013 22.567 60.2684 23.6777 60.0026C24.2154 59.8077 25.2468 59.2229 25.8198 58.9571C25.8198 58.9571 26.4545 58.0711 26.7983 57.9027C27.3801 57.2648 27.8649 56.8838 28.3939 56.2281C28.9051 55.2269 29.4605 53.632 31.1442 51.1777C31.9199 50.0524 32.8896 48.7322 34.0885 47.5715C34.0885 47.5715 34.4411 45.6665 36.0102 44.3463C36.3628 43.5577 36.9006 42.6362 37.4295 41.7768C37.6322 41.4401 37.835 41.1654 38.0201 40.8464C38.5137 40.1022 39.0427 38.7288 40.8938 38.5605C40.8938 38.5605 41.696 37.9934 42.0134 37.5858C42.4982 37.196 42.4013 36.558 42.7979 36.1238C42.2249 35.5302 40.7528 34.4049 40.647 32.8987C40.5324 31.2949 41.1319 30.0013 42.1192 29.0532C43.2123 28.0077 44.3494 27.5027 45.707 27.6267C47.4083 27.928 47.7168 28.5039 48.2458 29.071C48.7482 29.6203 48.951 29.2836 49.1537 29.9127C50.573 30.3291 50.5025 30.1608 50.4584 31.2152C50.6699 31.5164 51.0314 31.8088 51.0137 32.4202C51.5162 31.4367 51.622 31.2506 52.9266 30.1785C53.2528 29.2925 53.482 28.4153 53.7729 27.5293C54.0374 26.7052 54.3723 25.8635 54.6368 25.2256C54.4252 23.4092 54.963 23.1256 55.7034 21.5485C55.58 21.3358 55.6153 21.265 55.677 20.9105C55.9679 19.8739 56.4351 18.4916 56.7172 17.5967C56.7172 17.5967 56.8142 17.2423 57.1844 17.2246C57.5282 16.0905 58.0659 13.964 58.1541 13.5298C58.5155 12.3425 58.3128 11.9527 58.0747 11.2616C58.0042 11.04 58.0483 10.7299 57.9161 10.4818C57.537 9.77301 57.1315 8.85153 56.8494 8.19586C56.6731 7.77942 56.3998 6.21113 56.3998 6.21113C56.3646 6.13139 56.347 5.96304 56.347 5.96304"
    fill="currentColor" />
</svg>