<svg viewBox="0 0 171 38" fill="none" xmlns="http://www.w3.org/2000/svg">
  <g clip-path="url(#clip0_0_2203)">
    <path
      d="M40.9646 0H48.8432L52.4348 7.7918C53.0956 9.20631 53.7184 11.0147 53.7184 11.0147H53.7911C53.7911 11.0147 54.4519 9.20631 55.0747 7.7918L58.5935 0H66.3647L57.9359 16.5837H49.3586L40.9646 0Z"
      fill="currentColor" />
    <path d="M65.2832 0H72.9437V16.5837H65.2832V0Z" fill="currentColor" />
    <path d="M74.0566 0H94.4709V3.94214H81.7171V6.19234H92.3811V9.83308H81.7171V12.4292H94.8377V16.5803H74.0566V0Z"
      fill="currentColor" />
    <path
      d="M93.3137 6.99726e-06H100.974L102.881 5.68203C103.503 7.49041 104.164 10.2989 104.164 10.2989H104.237C104.237 10.2989 104.932 7.81578 105.593 5.91492L107.61 6.99726e-06H114.537L116.554 5.86697C117.215 7.7918 117.873 10.2955 117.873 10.2955H117.946C117.946 10.2955 118.641 7.49041 119.264 5.63408L121.17 -0.00341797H129.014L122.125 16.5803H114.392L112.046 9.55224C111.569 8.11375 111.129 6.32934 111.129 6.32934H111.056C111.056 6.32934 110.617 8.11375 110.14 9.55224L107.866 16.5803H100.023L93.3137 6.99726e-06Z"
      fill="currentColor" />
    <path d="M0 21.4163H7.66049V37.9999H0V21.4163Z" fill="currentColor" />
    <path
      d="M8.77344 21.4163H16.4339L25.0113 30.739H25.084V21.4163H32.4884V37.9999H24.5718L16.2537 28.6053H16.181V37.9999H8.7766V21.4163H8.77344Z"
      fill="currentColor" />
    <path d="M33.6706 21.4163H53.8636V25.4988H41.328V28.2114H51.7011V31.9686H41.328V37.9999H33.6675V21.4163H33.6706Z"
      fill="currentColor" />
    <path
      d="M64.1546 32.6673H61.0025V38.0034H53.342V21.4197H65.6564C68.9918 21.4197 71.4104 21.93 73.1335 22.9027C75.002 23.9473 76.0643 25.4063 76.0643 27.2387C76.0643 29.3245 74.2685 30.9959 71.5211 31.924L77.1645 37.9999H68.6978L64.1546 32.6638V32.6673ZM61.0025 28.9546H65.4003C67.2688 28.9546 68.4417 28.3039 68.4417 27.1702C68.4417 26.0365 67.3067 25.4303 65.3276 25.4303H61.0025V28.9546Z"
      fill="currentColor" />
    <path
      d="M85.1412 21.4163H92.9471L102.659 37.9999H94.5248L93.2412 35.5648H84.3729L83.0894 37.9999H75.4668L85.1412 21.4163ZM86.096 32.2255H91.5213L89.8709 28.9786C89.4662 28.1669 88.8814 26.8448 88.8814 26.8448H88.8086C88.8086 26.8448 88.2585 28.1669 87.8191 28.9786L86.096 32.2255Z"
      fill="currentColor" />
    <path
      d="M112.432 32.6673H109.28V38.0034H101.619V21.4197H113.934C117.269 21.4197 119.688 21.93 121.411 22.9027C123.279 23.9473 124.342 25.4063 124.342 27.2387C124.342 29.3245 122.546 30.9959 119.798 31.924L125.442 37.9999H116.975L112.432 32.6638V32.6673ZM109.28 28.9546H113.678C115.546 28.9546 116.719 28.3039 116.719 27.1702C116.719 26.0365 115.584 25.4303 113.605 25.4303H109.28V28.9546Z"
      fill="currentColor" />
    <path
      d="M124.806 21.4163H145.22V25.3584H132.467V27.6086H143.131V31.2493H132.467V33.8455H145.587V37.9965H124.806V21.4128V21.4163Z"
      fill="currentColor" />
    <path
      d="M146.115 21.4163H158.208C165.758 21.4163 171 24.4782 171 29.7424C171 35.0065 166.014 37.9999 157.879 37.9999H146.115V21.4163ZM157.257 33.9893C160.775 33.9893 163.232 32.5508 163.232 29.7458C163.232 26.9407 160.924 25.4303 157.257 25.4303H153.776V33.9893H157.257Z"
      fill="currentColor" />
  </g>
  <defs>
    <clipPath id="clip0_0_2203">
      <rect width="171" height="38" fill="white" />
    </clipPath>
  </defs>
</svg>
