<svg viewBox="0 0 180 104" fill="none" xmlns="http://www.w3.org/2000/svg">
  <g clip-path="url(#clip0_0_2416)">
    <path
      d="M15.7608 0H27.1136L29.9393 7.17502C30.8686 9.4534 31.8482 13.0031 31.8482 13.0031H31.9612C31.9612 13.0031 32.991 9.8688 33.9705 7.46454L36.9594 0H47.2322L50.2211 7.4016C51.2007 9.83103 52.1803 12.9906 52.1803 12.9906H52.2933C52.2933 12.9906 53.3231 9.4534 54.2524 7.11208L57.078 0H68.7071L58.4846 20.9334H47.0187L43.5401 12.0591C42.8368 10.2464 42.1837 7.99322 42.1837 7.99322H42.0707C42.0707 7.99322 41.4177 10.2464 40.7144 12.0591L37.3487 20.9334H25.7196L15.7608 0Z"
      fill="#FF3B49" />
    <path d="M68.1546 0H79.5074V7.66594H91.4631V0H102.816V20.9334H91.4631V12.7388H79.5074V20.9334H68.1546V0Z"
      fill="#FF3B49" />
    <path
      d="M116.58 0H128.159L142.563 20.9334H130.495L128.598 17.862H115.45L113.541 20.9334H102.238L116.58 0ZM117.986 13.6451H126.024L123.575 9.54151C122.972 8.52191 122.106 6.84774 122.106 6.84774H121.993C121.993 6.84774 121.176 8.52191 120.523 9.54151L117.974 13.6451H117.986Z"
      fill="#FF3B49" />
    <path d="M130.871 0H164.352V5.21133H153.213V20.9334H141.86V5.21133H130.884V0H130.871Z" fill="#FF3B49" />
    <path
      d="M53.6998 27.6931H71.6333C82.8354 27.6931 90.5965 31.5575 90.5965 38.2038C90.5965 44.8502 83.2121 48.6265 71.1435 48.6265H53.6998V27.6931ZM70.2142 43.5536C75.4259 43.5536 79.0679 41.741 79.0679 38.2038C79.0679 34.6667 75.6394 32.7533 70.2142 32.7533H65.0527V43.5536H70.2142Z"
      fill="#FF3B49" />
    <path
      d="M89.6169 38.229C89.6169 31.9603 97.2274 27.3154 109.296 27.3154C121.365 27.3154 129.076 31.9729 129.076 38.229C129.076 44.4851 121.365 49.1174 109.296 49.1174C97.2274 49.1174 89.6169 44.4977 89.6169 38.229ZM117.547 38.229C117.547 34.8051 114.771 32.1995 109.346 32.1995C103.921 32.1995 101.146 34.8051 101.146 38.229C101.146 41.6529 103.921 44.2334 109.346 44.2334C114.771 44.2334 117.547 41.6529 117.547 38.229Z"
      fill="#FF3B49" />
    <path
      d="M50.6482 68.9683L37.3362 55.3861H49.6686L53.8003 60.0436C55.2069 61.6296 56.4125 63.4045 56.4125 63.4045H56.5255C56.5255 63.4045 57.7814 61.617 59.1879 60.0436L63.3196 55.3861H75.3883L62.0261 68.9683V76.3195H50.6733V68.9683H50.6482Z"
      fill="#FF3B49" />
    <path
      d="M67.3383 65.9221C67.3383 59.6534 74.9487 55.0085 87.0174 55.0085C99.086 55.0085 106.797 59.6659 106.797 65.9221C106.797 72.1782 99.086 76.8105 87.0174 76.8105C74.9487 76.8105 67.3383 72.1908 67.3383 65.9221ZM95.2683 65.9221C95.2683 62.4982 92.4929 59.8925 87.0551 59.8925C81.6173 59.8925 78.8544 62.4982 78.8544 65.9221C78.8544 69.3459 81.6298 71.9264 87.0551 71.9264C92.4803 71.9264 95.2683 69.3459 95.2683 65.9221Z"
      fill="#FF3B49" />
    <path
      d="M107.01 68.3263V55.3861H118.363V68.6788C118.363 70.6173 120.322 71.8131 124.504 71.8131C128.36 71.8131 130.319 70.4662 130.319 68.5655V55.3987H141.672V68.3389C141.672 73.4873 135.97 76.7098 124.341 76.7098C112.712 76.7098 107.01 73.5754 107.01 68.3389V68.3263Z"
      fill="#FF3B49" />
    <path
      d="M0 83.0792H11.3528L14.1785 90.2542C15.1078 92.5326 16.0748 96.0823 16.0748 96.0823H16.1878C16.1878 96.0823 17.2176 92.948 18.1972 90.5437L21.1861 83.0792H31.4589L34.4478 90.4808C35.4273 92.9102 36.4069 96.0697 36.4069 96.0697H36.5199C36.5199 96.0697 37.5497 92.5326 38.479 90.1912L41.3047 83.0792H52.9338L42.7112 104.013H31.2454L27.7667 95.1382C27.0634 93.3256 26.4104 91.0724 26.4104 91.0724H26.2974C26.2974 91.0724 25.6443 93.3256 24.941 95.1382L21.5754 104.013H9.94628L0 83.0792Z"
      fill="#FF3B49" />
    <path
      d="M57.3418 83.0792H68.9207L83.3252 104.013H71.2565L69.3602 100.941H56.2115L54.3152 104.013H43.0126L57.3544 83.0792H57.3418ZM58.7483 96.7117H66.7857L64.3369 92.6081C63.734 91.5885 62.8675 89.9143 62.8675 89.9143H62.7545C62.7545 89.9143 61.9382 91.5885 61.2852 92.6081L58.7358 96.7117H58.7483Z"
      fill="#FF3B49" />
    <path
      d="M82.7726 83.0792H94.1255L106.847 94.8487H106.96V83.0792H117.936V104.013H106.194L93.8617 92.1549H93.7487V104.013H82.7726V83.0792Z"
      fill="#FF3B49" />
    <path d="M118.476 83.0792H151.957V88.2905H140.818V104.013H129.465V88.2905H118.489V83.0792H118.476Z"
      fill="#FF3B49" />
    <path
      d="M162.167 92.2053C164.666 90.7451 168.748 90.5689 168.748 88.7563C168.748 87.787 167.165 87.2331 165.269 87.2331C162.82 87.2331 161.087 88.1394 161.087 89.6374H150.651C150.764 85.2443 156.842 82.7015 166.085 82.7015C173.972 82.7015 180 84.9296 180 88.5548C180 91.1353 177.388 92.2431 174.889 93.0109C172.44 93.741 170.971 94.0683 170.217 94.6221C169.514 95.1508 169.401 95.6166 169.401 96.4599H160.321C160.321 93.9172 160.321 93.3004 162.167 92.2179V92.2053ZM159.291 98.4111H169.891V104H159.291V98.4111Z"
      fill="#FF3B49" />
  </g>
  <defs>
    <clipPath id="clip0_0_2416">
      <rect width="180" height="104" fill="white" />
    </clipPath>
  </defs>
</svg>